<?xml version="1.0" encoding="UTF-8"?>
<svg width="92px" height="54px" viewBox="0 0 92 54">
    <defs>
        <path d="M46.2406299,21.8839697 L51.0399805,21.8839697 C51.9887222,21.8839697 52.7535127,22.1514044 53.334375,22.6862817 C53.9152373,23.2211591 54.2056641,23.9726384 54.2056641,24.9407422 C54.2056641,25.7733115 53.9467002,26.4981683 53.4287646,27.1153345 C52.9108291,27.7325006 52.1145757,28.0410791 51.0399805,28.0410791 L47.6855176,28.0410791 L47.6855176,32.55 L46.2406299,32.55 L46.2406299,21.8839697 Z M52.7462549,24.9480029 C52.7462549,24.1638389 52.4558281,23.6313898 51.8749658,23.3506396 C51.5554916,23.2005836 51.1174312,23.1255566 50.5607715,23.1255566 L47.6855176,23.1255566 L47.6855176,26.8212744 L50.5607715,26.8212744 C51.209401,26.8212744 51.7357996,26.6833217 52.1399829,26.4074121 C52.5441662,26.1315025 52.7462549,25.6450377 52.7462549,24.9480029 Z M59.0848828,24.5994873 C59.636702,24.5994873 60.1715713,24.7289692 60.6895068,24.987937 C61.2074424,25.2469048 61.6019387,25.5821057 61.8730078,25.9935498 C62.1343958,26.3856318 62.3086519,26.843054 62.3957812,27.3658301 C62.4732296,27.7240285 62.5119531,28.2952012 62.5119531,29.0793652 L56.8122705,29.0793652 C56.8364731,29.8683698 57.0228303,30.5012582 57.3713477,30.9780493 C57.719865,31.4548404 58.2595748,31.6932324 58.9904932,31.6932324 C59.6730063,31.6932324 60.2175566,31.4681517 60.6241602,31.0179834 C60.8565051,30.7565954 61.0210802,30.4540675 61.1178906,30.1103906 L62.403042,30.1103906 C62.3691584,30.3959812 62.256618,30.7142406 62.0654175,31.0651782 C61.874217,31.4161158 61.6600272,31.7029123 61.4228418,31.9255762 C61.0259192,32.3128177 60.5346139,32.5742018 59.9489111,32.7097363 C59.6342774,32.7871846 59.2785046,32.8259082 58.881582,32.8259082 C57.9134782,32.8259082 57.0930226,32.4737657 56.4201904,31.7694702 C55.7473583,31.0651747 55.4109473,30.0789337 55.4109473,28.8107178 C55.4109473,27.5618639 55.7497785,26.5477904 56.4274512,25.7684668 C57.1051238,24.9891432 57.9909255,24.5994873 59.0848828,24.5994873 Z M61.1687158,28.0410791 C61.1154701,27.4747384 60.9920387,27.0221566 60.798418,26.6833203 C60.4402196,26.0540528 59.8424244,25.7394238 59.0050146,25.7394238 C58.4047903,25.7394238 57.9013839,25.9560338 57.4947803,26.3892603 C57.0881767,26.8224867 56.8727768,27.3730875 56.8485742,28.0410791 L61.1687158,28.0410791 Z M64.1528809,24.7737451 L65.3944678,24.7737451 L65.3944678,26.1169824 C65.4961187,25.8555944 65.7454017,25.537335 66.1423242,25.1621948 C66.5392468,24.7870546 66.996669,24.5994873 67.5146045,24.5994873 C67.5388071,24.5994873 67.5799509,24.6019075 67.6380371,24.606748 C67.6961233,24.6115886 67.7953525,24.6212695 67.9357275,24.635791 L67.9357275,26.015332 C67.8582792,26.0008105 67.7868827,25.9911296 67.7215356,25.9862891 C67.6561886,25.9814485 67.5847921,25.9790283 67.5073437,25.9790283 C66.8490332,25.9790283 66.3432065,26.1907978 65.9898486,26.6143433 C65.6364907,27.0378887 65.4598145,27.5255636 65.4598145,28.0773828 L65.4598145,32.55 L64.1528809,32.55 L64.1528809,24.7737451 Z M69.3951367,23.5902441 C69.4144988,23.048106 69.5088875,22.6511894 69.6783057,22.3994824 C69.9832584,21.9541547 70.5713726,21.7314941 71.442666,21.7314941 C71.5249548,21.7314941 71.6096627,21.7339144 71.696792,21.7387549 C71.7839213,21.7435954 71.8831505,21.7508561 71.9944824,21.7605371 L71.9944824,22.9512988 C71.8589479,22.9416178 71.7609289,22.9355672 71.7004224,22.933147 C71.6399159,22.9307267 71.5830406,22.9295166 71.5297949,22.9295166 C71.1328724,22.9295166 70.8956905,23.0323761 70.8182422,23.2380981 C70.7407939,23.4438202 70.7020703,23.9677985 70.7020703,24.8100488 L71.9944824,24.8100488 L71.9944824,25.8410742 L70.6875488,25.8410742 L70.6875488,32.55 L69.3951367,32.55 L69.3951367,25.8410742 L68.3132861,25.8410742 L68.3132861,24.8100488 L69.3951367,24.8100488 L69.3951367,23.5902441 Z M76.4380566,24.5994873 C76.9898758,24.5994873 77.5247451,24.7289692 78.0426807,24.987937 C78.5606162,25.2469048 78.9551126,25.5821057 79.2261816,25.9935498 C79.4875697,26.3856318 79.6618257,26.843054 79.7489551,27.3658301 C79.8264034,27.7240285 79.865127,28.2952012 79.865127,29.0793652 L74.1654443,29.0793652 C74.1896469,29.8683698 74.3760041,30.5012582 74.7245215,30.9780493 C75.0730389,31.4548404 75.6127486,31.6932324 76.343667,31.6932324 C77.0261802,31.6932324 77.5707304,31.4681517 77.977334,31.0179834 C78.2096789,30.7565954 78.3742541,30.4540675 78.4710645,30.1103906 L79.7562158,30.1103906 C79.7223322,30.3959812 79.6097918,30.7142406 79.4185913,31.0651782 C79.2273908,31.4161158 79.0132011,31.7029123 78.7760156,31.9255762 C78.3790931,32.3128177 77.8877878,32.5742018 77.302085,32.7097363 C76.9874512,32.7871846 76.6316784,32.8259082 76.2347559,32.8259082 C75.2666521,32.8259082 74.4461964,32.4737657 73.7733643,31.7694702 C73.1005321,31.0651747 72.7641211,30.0789337 72.7641211,28.8107178 C72.7641211,27.5618639 73.1029523,26.5477904 73.780625,25.7684668 C74.4582977,24.9891432 75.3440993,24.5994873 76.4380566,24.5994873 Z M78.5218896,28.0410791 C78.4686439,27.4747384 78.3452126,27.0221566 78.1515918,26.6833203 C77.7933934,26.0540528 77.1955983,25.7394238 76.3581885,25.7394238 C75.7579641,25.7394238 75.2545577,25.9560338 74.8479541,26.3892603 C74.4413505,26.8224867 74.2259506,27.3730875 74.201748,28.0410791 L78.5218896,28.0410791 Z M84.4684375,24.5486621 C85.3445714,24.5486621 86.0573272,24.7616418 86.6067261,25.1876074 C87.156125,25.6135731 87.4864854,26.3469007 87.5978174,27.3876123 L86.3271875,27.3876123 C86.2497392,26.9084009 86.0730629,26.5102742 85.7971533,26.1932202 C85.5212437,25.8761662 85.0783429,25.7176416 84.4684375,25.7176416 C83.6358682,25.7176416 83.0404933,26.1242391 82.6822949,26.9374463 C82.44995,27.4650629 82.3337793,28.1161029 82.3337793,28.8905859 C82.3337793,29.6699095 82.4983545,30.32579 82.8275098,30.8582471 C83.1566651,31.3907042 83.6745928,31.6569287 84.3813086,31.6569287 C84.9234467,31.6569287 85.3530363,31.4911434 85.6700903,31.1595679 C85.9871443,30.8279923 86.2061745,30.3742005 86.3271875,29.7981787 L87.5978174,29.7981787 C87.4526018,30.8292093 87.0895683,31.5831088 86.5087061,32.0598999 C85.9278438,32.536691 85.1848353,32.775083 84.2796582,32.775083 C83.2631492,32.775083 82.4523744,32.4035787 81.8473096,31.6605591 C81.2422447,30.9175394 80.9397168,29.9893838 80.9397168,28.8760645 C80.9397168,27.5110381 81.2712874,26.4485601 81.9344385,25.6885986 C82.5975896,24.9286372 83.4422475,24.5486621 84.4684375,24.5486621 Z M89.1661377,22.6027832 L90.4875928,22.6027832 L90.4875928,24.7737451 L91.7291797,24.7737451 L91.7291797,25.8410742 L90.4875928,25.8410742 L90.4875928,30.916333 C90.4875928,31.1874021 90.5795613,31.3689188 90.763501,31.4608887 C90.8651519,31.5141344 91.0345675,31.5407568 91.2717529,31.5407568 C91.3346797,31.5407568 91.4024459,31.5395467 91.4750537,31.5371265 C91.5476615,31.5347062 91.6323693,31.5286556 91.7291797,31.5189746 L91.7291797,32.55 C91.5791236,32.5935647 91.4230192,32.6250276 91.2608618,32.6443896 C91.0987044,32.6637517 90.9232382,32.6734326 90.734458,32.6734326 C90.1245526,32.6734326 89.7106944,32.5173282 89.4928711,32.2051147 C89.2750477,31.8929013 89.1661377,31.4875139 89.1661377,30.9889404 L89.1661377,25.8410742 L88.1133301,25.8410742 L88.1133301,24.7737451 L89.1661377,24.7737451 L89.1661377,22.6027832 Z" id="path-1"></path>
        <path d="M52.9449219,35.5639697 L56.0089551,44.6471582 L59.0366846,35.5639697 L60.6558301,35.5639697 L56.7640723,46.23 L55.2320557,46.23 L51.3475586,35.5639697 L52.9449219,35.5639697 Z M64.2716797,38.2794873 C64.8234989,38.2794873 65.3583682,38.4089692 65.8763037,38.667937 C66.3942392,38.9269048 66.7887356,39.2621057 67.0598047,39.6735498 C67.3211927,40.0656318 67.4954488,40.523054 67.5825781,41.0458301 C67.6600264,41.4040285 67.69875,41.9752012 67.69875,42.7593652 L61.9990674,42.7593652 C62.02327,43.5483698 62.2096272,44.1812582 62.5581445,44.6580493 C62.9066619,45.1348404 63.4463717,45.3732324 64.17729,45.3732324 C64.8598032,45.3732324 65.4043534,45.1481517 65.810957,44.6979834 C66.0433019,44.4365954 66.2078771,44.1340675 66.3046875,43.7903906 L67.5898389,43.7903906 C67.5559552,44.0759812 67.4434149,44.3942406 67.2522144,44.7451782 C67.0610139,45.0961158 66.8468241,45.3829123 66.6096387,45.6055762 C66.2127161,45.9928177 65.7214108,46.2542018 65.135708,46.3897363 C64.8210743,46.4671846 64.4653015,46.5059082 64.0683789,46.5059082 C63.1002751,46.5059082 62.2798194,46.1537657 61.6069873,45.4494702 C60.9341552,44.7451747 60.5977441,43.7589337 60.5977441,42.4907178 C60.5977441,41.2418639 60.9365754,40.2277904 61.614248,39.4484668 C62.2919207,38.6691432 63.1777224,38.2794873 64.2716797,38.2794873 Z M66.3555127,41.7210791 C66.302267,41.1547384 66.1788356,40.7021566 65.9852148,40.3633203 C65.6270164,39.7340528 65.0292213,39.4194238 64.1918115,39.4194238 C63.5915872,39.4194238 63.0881807,39.6360338 62.6815771,40.0692603 C62.2749736,40.5024867 62.0595737,41.0530875 62.0353711,41.7210791 L66.3555127,41.7210791 Z M69.303374,38.4537451 L70.5449609,38.4537451 L70.5449609,39.5573779 C70.9128404,39.1023691 71.3024963,38.775639 71.7139404,38.5771777 C72.1253845,38.3787165 72.5828067,38.2794873 73.0862207,38.2794873 C74.189859,38.2794873 74.9352878,38.6643028 75.3225293,39.4339453 C75.5355121,39.8550705 75.642002,40.457706 75.642002,41.2418701 L75.642002,46.23 L74.3132861,46.23 L74.3132861,41.328999 C74.3132861,40.8546282 74.2430997,40.4722329 74.1027246,40.1818018 C73.8703797,39.6977499 73.4492609,39.4557275 72.8393555,39.4557275 C72.5295623,39.4557275 72.2754388,39.4871904 72.0769775,39.5501172 C71.7187791,39.6566086 71.4041501,39.8695882 71.1330811,40.1890625 C70.9152577,40.44561 70.7736746,40.7106244 70.7083276,40.9841138 C70.6429806,41.2576031 70.6103076,41.6484691 70.6103076,42.1567236 L70.6103076,46.23 L69.303374,46.23 L69.303374,38.4537451 Z M77.8347461,36.2827832 L79.1562012,36.2827832 L79.1562012,38.4537451 L80.3977881,38.4537451 L80.3977881,39.5210742 L79.1562012,39.5210742 L79.1562012,44.596333 C79.1562012,44.8674021 79.2481697,45.0489188 79.4321094,45.1408887 C79.5337603,45.1941344 79.7031759,45.2207568 79.9403613,45.2207568 C80.0032881,45.2207568 80.0710543,45.2195467 80.1436621,45.2171265 C80.2162699,45.2147062 80.3009777,45.2086556 80.3977881,45.1989746 L80.3977881,46.23 C80.247732,46.2735647 80.0916276,46.3050276 79.9294702,46.3243896 C79.7673128,46.3437517 79.5918466,46.3534326 79.4030664,46.3534326 C78.793161,46.3534326 78.3793028,46.1973282 78.1614795,45.8851147 C77.9436561,45.5729013 77.8347461,45.1675139 77.8347461,44.6689404 L77.8347461,39.5210742 L76.7819385,39.5210742 L76.7819385,38.4537451 L77.8347461,38.4537451 L77.8347461,36.2827832 Z" id="path-2"></path>
    </defs>
    <g id="Page-1" stroke="none" stroke-width="1" fill="none" fill-rule="evenodd">
        <g id="perfect-vent-ostatnie" fill-rule="nonzero">
            <path d="M25.85,28.88 C24.57,29.19 10.31,32.5 4.54,29.2 C3.09685834,28.5151269 1.97252919,27.3012811 1.4,25.81 C0.830093369,24.1509105 0.830093369,22.3490895 1.4,20.69 C1.60921097,19.8052009 1.98231158,18.9674205 2.5,18.22 C3.3996948,16.814764 4.75017998,15.7569428 6.33,15.22 C9.6,13.97 17.78,16.02 27.58,20.97" id="Path" fill="#E7CF6A"></path>
            <path d="M31.98,19.97 C32.42,18.71 36.98,4.87 42.98,1.3 C44.3334178,0.346571869 45.9809527,-0.0963138501 47.63,0.05 C49.3218481,0.284213743 50.8747926,1.11386901 52.01,2.39 C52.54,2.65 53.01,3.56 53.54,4.46 C54.2490321,5.91154913 54.405436,7.57156307 53.98,9.13 C53.27,12.56 47.38,18.66 37.75,25.04" id="Path" fill="#E7CF6A"></path>
            <path d="M37.14,27.81 C38.02,28.73 47.7,38.98 47.71,45.81 C47.8267108,47.4743309 47.3560679,49.1268888 46.38,50.48 C45.2902148,51.8975686 43.7769857,52.9309079 42.06,53.43 C41.2292356,53.7583753 40.343296,53.9247011 39.45,53.92 C37.860897,53.9611483 36.3135106,53.4085103 35.11,52.37 C32.48,50.3 30.39,42.49 29.81,31.23" id="Path" fill="#E7CF6A"></path>
            <ellipse id="Oval" fill="#E7CF6A" transform="translate(31.439479, 25.720862) rotate(-12.030000) translate(-31.439479, -25.720862) " cx="31.4394787" cy="25.7208622" rx="6.51" ry="6.08"></ellipse>
            <path d="M32.79,19.72 C34.4467574,19.9894155 35.9420403,20.8708831 36.98,22.19 C38.0577802,23.5667731 38.481387,25.3451912 38.14,27.06 C37.7748592,28.8368935 36.716859,30.3951046 35.2,31.39 C33.6547414,32.4049987 31.7840852,32.8012637 29.96,32.5 C28.115484,32.1907096 26.4802184,31.134299 25.44,29.58 C24.4462392,28.0325124 24.1933245,26.1228237 24.75,24.37 C25.2858006,22.7183692 26.4445524,21.3407819 27.98,20.53 C29.4462374,19.7256606 31.1411995,19.4402304 32.79,19.72 L32.79,19.72 Z M32.79,19.72 C31.1567051,19.4584429 29.4845572,19.8149776 28.1,20.72 C26.7590683,21.6059903 25.8296481,22.9929157 25.52,24.57 C25.2242087,26.0551492 25.5892224,27.595507 26.52,28.79 C27.4312906,29.9387779 28.7413877,30.7027038 30.19,30.93 C31.651564,31.1807644 33.1550038,30.9342988 34.46,30.23 C35.8205027,29.5299926 36.8512959,28.3232104 37.33,26.87 C37.8239535,25.3438329 37.6151612,23.6771571 36.76,22.32 C35.8502008,20.9445859 34.4144049,20.0042661 32.79,19.72 L32.79,19.72 Z" id="Shape" fill="#FFFFFF"></path>
            <path d="M33.82,31.33 L38.27,43.07" id="Path" fill="#E7CF6A"></path>
            <path d="M33.82,31.33 C34.4688754,32.1948063 35.0347157,33.1189006 35.51,34.09 C35.989683,35.0255497 36.4170085,35.9870319 36.79,36.97 C37.1639389,37.9509533 37.4811297,38.9526084 37.74,39.97 C38.0200176,41.003371 38.1975417,42.0618168 38.27,43.13 C37.6179477,42.2815598 37.0518321,41.3704153 36.58,40.41 C36.0943905,39.4807251 35.6669027,38.5222173 35.3,37.54 C34.92784,36.5584275 34.6106815,35.556874 34.35,34.54 C34.0668536,33.4903246 33.8893049,32.4149825 33.82,31.33 Z" id="Path" fill="#FFFFFF"></path>
            <path d="M25.09,24.63 L14.63,22.64" id="Path" fill="#E7CF6A"></path>
            <path d="M25.09,24.63 C24.1867734,24.7671443 23.2708397,24.800695 22.36,24.73 C20.5797999,24.6319808 18.820787,24.2956495 17.13,23.73 C16.2555411,23.4605987 15.4162932,23.0879726 14.63,22.62 C15.5333152,22.4844078 16.4487041,22.447524 17.36,22.51 C19.1393802,22.6146563 20.8975264,22.9508219 22.59,23.51 C23.4633541,23.7866789 24.3021516,24.1624602 25.09,24.63 Z" id="Path" fill="#FFFFFF"></path>
            <path d="M36.35,21.02 L43.74,13.36" id="Path" fill="#E7CF6A"></path>
            <path d="M36.35,21.02 C36.7264822,20.1842218 37.1997167,19.3954976 37.76,18.67 C38.2876278,17.9653506 38.8622702,17.2971617 39.48,16.67 C40.1029304,16.0261979 40.7713183,15.4279907 41.48,14.88 C42.1841212,14.2977746 42.9524328,13.7978688 43.77,13.39 C43.3931297,14.2234565 42.9234973,15.0117681 42.37,15.74 C41.8443573,16.4462409 41.2696005,17.1145628 40.65,17.74 C40.0244615,18.381085 39.3562693,18.979117 38.65,19.53 C37.9427471,20.1128667 37.1710495,20.6127925 36.35,21.02 L36.35,21.02 Z" id="Path" fill="#FFFFFF"></path>
            <g id="Perfect">
                <use fill="#000000" xlink:href="#path-1"></use>
                <use fill="#585B5F" xlink:href="#path-1"></use>
            </g>
            <g id="Vent">
                <use fill="#000000" xlink:href="#path-2"></use>
                <use fill="#585B5F" xlink:href="#path-2"></use>
            </g>
        </g>
    </g>
</svg>
